<svg width="100" height="100" viewBox="0 0 100 100" fill="none" xmlns="http://www.w3.org/2000/svg">
<path d="M39.4167 18.0502C44.75 12.1377 53.1084 8.3335 62.5 8.3335C78.6084 8.3335 91.6667 19.5252 91.6667 33.3335C91.6667 41.621 86.9584 48.9668 79.7167 53.5168C79.5362 53.6273 79.3528 53.7329 79.1667 53.8335V70.7085C79.1666 71.5381 78.919 72.3488 78.4554 73.0367C77.9918 73.7247 77.3334 74.2586 76.5645 74.5701C75.7956 74.8816 74.9513 74.9565 74.1396 74.7852C73.3279 74.6139 72.5858 74.2041 72.0084 73.6085L67.2584 68.7168C71.7125 63.4502 74.3334 56.9835 74.3334 49.996C74.3334 33.0502 58.925 19.1835 39.4167 18.0502Z" fill="white"/>
<path d="M43.2708 74.525L27.9917 90.275C27.4142 90.8707 26.6722 91.2804 25.8605 91.4517C25.0488 91.623 24.2044 91.5481 23.4355 91.2366C22.6666 90.9251 22.0082 90.3912 21.5446 89.7032C21.0811 89.0153 20.8334 88.2046 20.8333 87.375V70.5C20.6472 70.3994 20.4638 70.2938 20.2833 70.1833C13.0375 65.6333 8.33334 58.2875 8.33334 50C8.33334 36.1917 21.3917 25 37.5 25C53.6083 25 66.6667 36.1917 66.6667 50C66.6667 61.3583 57.8292 70.95 45.725 73.9917C44.9138 74.1996 44.0952 74.3775 43.2708 74.525Z" fill="white"/>
</svg>
